<svg xmlns="http://www.w3.org/2000/svg" width="189" height="117" viewBox="0 0 189 117">
    <defs>
        <filter id="3301hgvcza" width="114%" height="124.2%" x="-7%" y="-12.1%" filterUnits="objectBoundingBox">
            <feOffset dy="2" in="SourceAlpha" result="shadowOffsetOuter1"/>
            <feGaussianBlur in="shadowOffsetOuter1" result="shadowBlurOuter1" stdDeviation="2"/>
            <feColorMatrix in="shadowBlurOuter1" result="shadowMatrixOuter1" values="0 0 0 0 0 0 0 0 0 0 0 0 0 0 0 0 0 0 0.5 0"/>
            <feMerge>
                <feMergeNode in="shadowMatrixOuter1"/>
                <feMergeNode in="SourceGraphic"/>
            </feMerge>
        </filter>
    </defs>
    <g fill="none" fill-rule="evenodd">
        <g>
            <g>
                <g filter="url(#3301hgvcza)" transform="translate(-281 -227) translate(274 232) translate(16 4)">
                    <g>
                        <path fill="#604EFD" stroke="#604EFD" d="M138.807.5v21.316c0 2.848 1.133 5.43 2.972 7.321 1.847 1.9 4.406 3.101 7.247 3.177h0l21.474.004V98.5H.5V3.003c0-.665.259-1.269.681-1.717C1.604.84 2.19.546 2.843.506h0L138.807.5z"/>
                        <path fill="#000" d="M144.378 31.818L171 31.818 171 54.091z" opacity=".1"/>
                        <path fill="#A49AFE" d="M139.307 0l10.054 10.094 14.115 14.17L171 31.818h-21.687c-5.526 0-10.006-4.474-10.006-10.002V0z"/>
                        <g fill="#FFF" fill-rule="nonzero">
                            <path d="M21.317 0H2.021C.905 0 0 .904 0 2.021v19.296c0 1.118.905 2.022 2.021 2.022h19.296c1.117 0 2.022-.904 2.022-2.022V2.021C23.339.904 22.434 0 21.317 0zm-2.02 19.296H4.041V4.042h15.254v15.254zM32.087 6.243h55.696c2.309 0 4.18-.904 4.18-2.021s-1.871-2.021-4.18-2.021H32.087c-2.308 0-4.179.904-4.179 2.021s1.871 2.021 4.18 2.021zM32.087 13.69h55.696c2.309 0 4.18-.904 4.18-2.02 0-1.118-1.871-2.022-4.18-2.022H32.087c-2.308 0-4.179.904-4.179 2.021s1.871 2.021 4.18 2.021zM31.134 21.138h26.158c1.781 0 3.226-.904 3.226-2.021 0-1.118-1.445-2.022-3.226-2.022H31.134c-1.782 0-3.226.904-3.226 2.022 0 1.117 1.444 2.02 3.226 2.02zM21.317 28.61H2.021C.905 28.61 0 29.516 0 30.633v19.296c0 1.117.905 2.021 2.021 2.021h19.296c1.117 0 2.022-.904 2.022-2.021V30.632c0-1.117-.905-2.021-2.022-2.021zm-2.02 19.297H4.041V32.653h15.254v15.254zM32.087 34.854h55.696c2.309 0 4.18-.904 4.18-2.021 0-1.118-1.871-2.022-4.18-2.022H32.087c-2.308 0-4.179.904-4.179 2.022 0 1.117 1.871 2.02 4.18 2.02zM32.087 42.301h55.696c2.309 0 4.18-.904 4.18-2.021s-1.871-2.021-4.18-2.021H32.087c-2.308 0-4.179.904-4.179 2.02 0 1.118 1.871 2.022 4.18 2.022zM57.292 45.708H31.134c-1.782 0-3.226.904-3.226 2.021s1.444 2.021 3.226 2.021h26.158c1.781 0 3.226-.904 3.226-2.02 0-1.118-1.445-2.022-3.226-2.022z" transform="translate(39.302 41.393)"/>
                            <path d="M8.676 44.599c.395.394.912.592 1.429.592s1.034-.198 1.43-.592l5.78-5.78c.789-.79.789-2.068 0-2.858-.79-.79-2.07-.79-2.859 0l-4.351 4.35-1.223-1.221c-.79-.79-2.07-.79-2.858 0-.79.79-.79 2.068 0 2.858l2.652 2.65z" transform="translate(39.302 41.393)"/>
                        </g>
                    </g>
                </g>
            </g>
        </g>
    </g>
</svg>
