<svg xmlns="http://www.w3.org/2000/svg" width="172" height="107" viewBox="0 0 172 107">
    <g fill="none" fill-rule="evenodd">
        <g>
            <g>
                <g>
                    <g>
                        <g transform="translate(-745 -337) translate(552 337) translate(193) translate(.113) rotate(-19 124.14 20.1)">
                            <rect width="90" height="68.304" fill="#FFF" stroke="#E2E2E2" stroke-width="2" rx="10"/>
                            <circle cx="41.786" cy="36.964" r="16.071" fill="#F6F6F6"/>
                            <path fill="#D1D1D1" d="M43.795 32.143L50.625 42.589 36.964 42.589z" transform="rotate(90 43.795 37.366)"/>
                        </g>
                        <g>
                            <path fill="#FFF" stroke="#E2E2E2" stroke-width="2" d="M10 0h92c5.523 0 10 4.477 10 10v58c0 5.523-4.477 10-10 10H10C4.477 78 0 73.523 0 68V10C0 4.477 4.477 0 10 0z" transform="translate(-745 -337) translate(552 337) translate(193) translate(.113) translate(58.887)"/>
                            <g transform="translate(-745 -337) translate(552 337) translate(193) translate(.113) translate(58.887) translate(39 21)">
                                <rect width="35" height="35" fill="#F6F6F6" rx="5"/>
                                <g>
                                    <path d="M0 0H35V35H0z" transform="translate(0 .897)"/>
                                    <g fill="#D1D1D1" fill-rule="nonzero">
                                        <path d="M23.293 14.538c.333-.332.841-.414 1.262-.203l10.45 8.634v9.843c0 1.209-.98 2.188-2.188 2.188H2.192C.984 35 .004 34.02.004 32.812v-4.374l7.976-9.525c.369-.367.945-.424 1.378-.136l5.819 6.066 8.116-10.303v-.002zM9.844 10.938c3.02 0 5.469-2.449 5.469-5.47 0-3.02-2.449-5.468-5.47-5.468-3.02 0-5.468 2.448-5.468 5.469 0 3.02 2.448 5.468 5.469 5.468z" transform="translate(0 .897)"/>
                                    </g>
                                </g>
                            </g>
                        </g>
                    </g>
                </g>
            </g>
        </g>
    </g>
</svg>
