<svg xmlns="http://www.w3.org/2000/svg" width="189" height="117" viewBox="0 0 189 117">
    <defs>
        <filter id="sskgx7gn7a" width="114%" height="124.2%" x="-7%" y="-12.1%" filterUnits="objectBoundingBox">
            <feOffset dy="2" in="SourceAlpha" result="shadowOffsetOuter1"/>
            <feGaussianBlur in="shadowOffsetOuter1" result="shadowBlurOuter1" stdDeviation="2"/>
            <feColorMatrix in="shadowBlurOuter1" result="shadowMatrixOuter1" values="0 0 0 0 0 0 0 0 0 0 0 0 0 0 0 0 0 0 0.5 0"/>
            <feMerge>
                <feMergeNode in="shadowMatrixOuter1"/>
                <feMergeNode in="SourceGraphic"/>
            </feMerge>
        </filter>
    </defs>
    <g fill="none" fill-rule="evenodd">
        <g>
            <g>
                <g filter="url(#sskgx7gn7a)" transform="translate(-502 -227) translate(495 232) translate(16 4)">
                    <g>
                        <path fill="#5491F2" stroke="#5491F2" d="M138.807.5v21.316c0 2.848 1.133 5.43 2.972 7.321 1.847 1.9 4.406 3.101 7.247 3.177h0l21.474.004V98.5H.5V3.003c0-.665.259-1.269.681-1.717C1.604.84 2.19.546 2.843.506h0L138.807.5z"/>
                        <path fill="#000" d="M144.378 31.818L171 31.818 171 54.091z" opacity=".1"/>
                        <path fill="#A6C6F7" d="M139.307 0l10.054 10.094 14.115 14.17L171 31.818h-21.687c-5.526 0-10.006-4.474-10.006-10.002V0z"/>
                        <g fill="#FFF" fill-rule="nonzero">
                            <path d="M33.3 0c.901 0 1.632.73 1.632 1.632V9.42c0 .902-.73 1.633-1.632 1.633-.902 0-1.633-.731-1.633-1.633V1.632C31.667.731 32.398 0 33.3 0zM9.753 54.538c-.413.412-.575 1.014-.424 1.578.15.564.59 1.004 1.155 1.155.564.15 1.166-.011 1.578-.425l5.506-5.507c.636-.637.635-1.67-.002-2.306-.636-.636-1.668-.637-2.306-.002l-5.507 5.507zm45.939 2.786c.66 0 1.255-.397 1.508-1.007.252-.61.113-1.312-.354-1.78l-5.506-5.506c-.638-.635-1.67-.634-2.306.002-.637.637-.638 1.669-.003 2.306l5.507 5.507c.306.307.721.479 1.154.478zm-1.154-47.57l-5.506 5.506c-.415.412-.578 1.014-.428 1.58.15.564.592 1.005 1.157 1.156.565.15 1.167-.013 1.579-.428l5.506-5.506c.635-.638.634-1.67-.002-2.306-.637-.637-1.668-.638-2.306-.003zm-36.97 5.506l-5.506-5.507c-.638-.635-1.67-.634-2.306.003-.637.636-.638 1.668-.003 2.306l5.507 5.506c.412.414 1.014.576 1.578.425.564-.15 1.005-.59 1.155-1.155.151-.564-.01-1.166-.425-1.578zM0 33.3c0 .901.73 1.632 1.632 1.632H9.42c.901 0 1.632-.73 1.632-1.632 0-.902-.73-1.633-1.632-1.633H1.632C.731 31.667 0 32.398 0 33.3zm64.967-1.633H57.18c-.902 0-1.633.731-1.633 1.633 0 .901.731 1.632 1.633 1.632h7.787c.902 0 1.633-.73 1.633-1.632 0-.902-.731-1.633-1.633-1.633zM39.19 67.312c.581 0 1.119.308 1.41.811.29.503.29 1.123 0 1.626-.291.503-.829.812-1.41.81H27.41c-.895-.002-1.62-.728-1.62-1.623s.725-1.622 1.62-1.624zm0-5.682c.58 0 1.116.31 1.406.812.29.502.29 1.121 0 1.623-.29.503-.825.812-1.406.812H27.41c-.896 0-1.623-.727-1.623-1.623 0-.897.727-1.624 1.623-1.624zM33.3 16.667c9.187 0 16.633 7.447 16.633 16.633-.015 4.81-1.493 9.503-4.238 13.454-2.078 2.952-4.632 6.43-5.55 9.392h-.193c.658.347.994 1.1.814 1.822-.18.723-.83 1.23-1.576 1.227H27.41c-.744.002-1.395-.504-1.575-1.227-.18-.722.156-1.475.814-1.822h-.192c-.915-2.965-3.469-6.449-5.547-9.403-2.744-3.947-4.224-8.636-4.242-13.443 0-9.186 7.446-16.633 16.632-16.633zm-3.424 35.02c0 .69.56 1.252 1.252 1.252h4.346c.332 0 .65-.132.885-.367s.367-.553.367-.885v-3.105h-6.85v3.104zm0-20.332v14.289h6.85V31.355h-6.85zm.304-4.019c-.157.34-.25.707-.275 1.081h6.792c-.025-.374-.119-.74-.275-1.08-.62-1.295-2.023-4.18-2.717-5.603-.075-.155-.232-.253-.404-.253-.172 0-.328.098-.403.253-.695 1.423-2.099 4.308-2.718 5.602z" transform="translate(52 28)"/>
                        </g>
                    </g>
                </g>
            </g>
        </g>
    </g>
</svg>
