<svg xmlns="http://www.w3.org/2000/svg" width="117" height="116" viewBox="0 0 117 116">
  <path fill="#D1D5DB" fill-rule="evenodd" d="M61.909,7.695 C64.094,12.78 66.997,19.537 66.997,19.537 L113.584,19.537 C115.02,19.537 116.398,20.107 117.414,21.123 C118.429,22.139 119,23.516 119,24.953 C119,40.955 119,110 119,110 C119,113.741 115.406,118 112,118 C91.813,118 29.188,118 9,118 C5.594,118 2,113.741 2,110 C2,93.055 2.333,25.888 2.333,8.942 C2.333,5.201 5.095,2.169 8.501,2.169 C8.501,2.169 40.023,2.169 53.519,2.169 C57.169,2.169 60.468,4.342 61.909,7.695 Z" transform="translate(-2 -2)"/>
</svg>
