<svg xmlns="http://www.w3.org/2000/svg" width="23" height="26" viewBox="0 0 23 26">
    <g fill="none" fill-rule="evenodd">
        <g fill-rule="nonzero">
            <g>
                <g>
                    <g>
                        <g fill="#25F4EE">
                            <path d="M9.102 10.02v-.992c-.357-.054-.717-.084-1.078-.09-3.497-.006-6.593 2.18-7.643 5.397-1.05 3.217.19 6.72 3.06 8.646-2.15-2.22-2.747-5.45-1.525-8.25 1.223-2.8 4.037-4.645 7.186-4.711z" transform="translate(-612 -979) translate(337 845) translate(257 35) translate(18 99)"/>
                            <path d="M9.296 21.25c1.955-.002 3.562-1.488 3.647-3.372V1.065h3.184C16.062.713 16.031.357 16.035 0h-4.356v16.797c-.072 1.894-1.683 3.394-3.647 3.397-.587-.005-1.165-.144-1.685-.407.684.915 1.78 1.458 2.949 1.463zM22.075 6.77v-.935c-1.172 0-2.318-.334-3.294-.96.855.96 2.012 1.625 3.294 1.894z" transform="translate(-612 -979) translate(337 845) translate(257 35) translate(18 99)"/>
                        </g>
                        <path fill="#FE2C55" d="M18.577 4.673C17.632 3.625 17.11 2.279 17.11.885h-1.143c.298 1.557 1.242 2.927 2.609 3.788zM8 12.869c-1.65.008-3.082 1.108-3.474 2.667-.392 1.56.358 3.178 1.817 3.926-.79-1.063-.902-2.467-.289-3.635.614-1.169 1.848-1.903 3.197-1.902.36.004.716.059 1.06.161v-4.24c-.351-.05-.706-.077-1.06-.08H9.06v3.224c-.345-.09-.703-.131-1.06-.121zM21.764 7.077v3.234c-2.122-.004-4.189-.663-5.908-1.884v8.497c-.009 4.24-3.514 7.672-7.835 7.672-1.605.003-3.171-.483-4.483-1.39 2.189 2.31 5.595 3.07 8.587 1.916 2.991-1.153 4.958-3.985 4.96-7.139V9.51c1.724 1.213 3.793 1.863 5.915 1.86V7.206c-.415-.001-.83-.044-1.236-.13z" transform="translate(-612 -979) translate(337 845) translate(257 35) translate(18 99)"/>
                        <path fill="#000" d="M16.21 16.87V8.124c1.721 1.25 3.787 1.92 5.905 1.914V6.71c-1.25-.268-2.382-.94-3.223-1.914-1.358-.889-2.295-2.303-2.591-3.911h-3.109V18.11c-.062 1.537-1.079 2.865-2.534 3.31-1.456.444-3.03-.093-3.922-1.338-1.45-.772-2.193-2.444-1.804-4.054.389-1.61 1.811-2.745 3.45-2.753.356.003.71.059 1.052.166v-3.329c-3.091.053-5.86 1.95-7.056 4.833-1.197 2.884-.597 6.212 1.53 8.482 1.321.903 2.887 1.371 4.481 1.34 4.313 0 7.812-3.533 7.822-7.898z" transform="translate(-612 -979) translate(337 845) translate(257 35) translate(18 99)"/>
                    </g>
                </g>
            </g>
        </g>
    </g>
</svg>
